<svg xmlns="http://www.w3.org/2000/svg" xmlns:xlink="http://www.w3.org/1999/xlink" width="60" height="60" viewBox="0 0 60 60">
  <defs>
    <clipPath id="clip-path">
      <rect id="Rectangle_4" data-name="Rectangle 4" width="60" height="60" fill="none"/>
    </clipPath>
  </defs>
  <g id="InstagramIcon" clip-path="url(#clip-path)">
    <g id="Group_3" data-name="Group 3" transform="translate(0.006 -0.016)">
      <path id="Path_3" data-name="Path 3" d="M30,60a29.991,29.991,0,1,1,11.677-2.358A30.008,30.008,0,0,1,30,60Zm0-46H29.3c-3.672,0-4.25.02-5.9.1a11.829,11.829,0,0,0-3.884.744,8.18,8.18,0,0,0-4.681,4.679,11.75,11.75,0,0,0-.744,3.884c-.079,1.75-.1,2.321-.1,6.6s.019,4.85.1,6.6a11.875,11.875,0,0,0,.744,3.884,8.189,8.189,0,0,0,4.679,4.681,11.845,11.845,0,0,0,3.884.743c1.722.079,2.292.1,6.6.1s4.875-.019,6.6-.1a11.851,11.851,0,0,0,3.886-.743,8.2,8.2,0,0,0,4.679-4.681A11.93,11.93,0,0,0,45.9,36.6c.079-1.75.1-2.321.1-6.6s-.019-4.851-.1-6.6a11.914,11.914,0,0,0-.744-3.882,8.18,8.18,0,0,0-4.68-4.68,11.875,11.875,0,0,0-3.886-.744C34.874,14.021,34.3,14,30,14Z" transform="translate(-0.005 0.013)" fill="#fff"/>
      <path id="Path_4" data-name="Path 4" d="M13.116,26.23c-4.243,0-4.75-.016-6.465-.094a8.875,8.875,0,0,1-2.971-.552,4.956,4.956,0,0,1-1.839-1.2,4.942,4.942,0,0,1-1.2-1.836,8.831,8.831,0,0,1-.551-2.97C.016,17.908,0,17.4,0,13.112S.016,8.32.093,6.65A8.854,8.854,0,0,1,.644,3.679a4.929,4.929,0,0,1,1.2-1.839A4.989,4.989,0,0,1,3.68.641,8.9,8.9,0,0,1,6.651.09C8.135.022,8.7,0,11.682,0h1.434c4.31,0,4.811.016,6.465.091a8.875,8.875,0,0,1,2.971.551,4.942,4.942,0,0,1,1.839,1.2,4.989,4.989,0,0,1,1.2,1.84,8.891,8.891,0,0,1,.551,2.97c.076,1.671.092,2.175.092,6.464s-.016,4.792-.092,6.464a8.891,8.891,0,0,1-.551,2.97,5.306,5.306,0,0,1-3.036,3.034,8.8,8.8,0,0,1-2.971.552C17.875,26.214,17.36,26.23,13.116,26.23Zm0-21.326a8.216,8.216,0,1,0,8.216,8.221A8.216,8.216,0,0,0,13.116,4.9Zm8.541-2.25h0a1.406,1.406,0,1,1,0,.009Z" transform="translate(16.879 16.894)" fill="#fff"/>
      <path id="Path_5" data-name="Path 5" d="M5.334,0A5.334,5.334,0,1,1,0,5.334,5.334,5.334,0,0,1,5.334,0Z" transform="translate(24.661 24.682)" fill="#fff"/>
    </g>
  </g>
</svg>
