<svg xmlns="http://www.w3.org/2000/svg" width="80" height="48" viewBox="0 0 80 48">
  <path id="Logo" d="M79.209,113.873c-5.98-7.065-24.32-28.911-24.32-28.911A2.774,2.774,0,0,0,53,84.034a2.994,2.994,0,0,0-2.077.587l-4.806,3.772L34.838,70.843a2.917,2.917,0,0,0-4.625-.053L.351,114.351a1.919,1.919,0,0,0,0,2.217,2.785,2.785,0,0,0,2.292,1.107H77.3a.264.264,0,0,1,.051,0A2.46,2.46,0,0,0,80,115.457,2.55,2.55,0,0,0,79.209,113.873ZM47.226,93.6l5.09-4,10.121,12.032-8.587-7.5a.849.849,0,0,0-1.064-.009l-6.124,5.129a.848.848,0,0,1-.811.134.628.628,0,0,1-.457-.578l.023-4.664A2.922,2.922,0,0,0,47.226,93.6ZM32.433,76.457,39,86.672l-4.93,3.647a.838.838,0,0,1-.558.154.784.784,0,0,1-.517-.235l-3.16-3.363a.81.81,0,0,0-.623-.237.777.777,0,0,0-.592.291l-4.778,6.389a.8.8,0,0,1-.7.289.745.745,0,0,1-.625-.391l-.641-1.361Z" transform="translate(0 -69.676)" fill="#fff"/>
</svg>
